<?xml version="1.0" encoding="UTF-8" standalone="no"?>
<!-- Created with Inkscape (http://www.inkscape.org/) -->

<!--
Artwork by Anna Guinet.

This work is licensed under a Creative Commons Attribution-NonCommercial-ShareAlike 4.0 International License.
http://creativecommons.org/licenses/by-nc-sa/4.0/
-->

<svg
   xmlns:dc="http://purl.org/dc/elements/1.1/"
   xmlns:cc="http://creativecommons.org/ns#"
   xmlns:rdf="http://www.w3.org/1999/02/22-rdf-syntax-ns#"
   xmlns:svg="http://www.w3.org/2000/svg"
   xmlns="http://www.w3.org/2000/svg"
   xmlns:sodipodi="http://sodipodi.sourceforge.net/DTD/sodipodi-0.dtd"
   xmlns:inkscape="http://www.inkscape.org/namespaces/inkscape"
   width="259.48862mm"
   height="65.832886mm"
   viewBox="0 0 259.48862 65.832887"
   version="1.1"
   id="svg1235"
   inkscape:version="0.92.2 5c3e80d, 2017-08-06"
   sodipodi:docname="XKCP-Anna-banner.svg">
  <defs
     id="defs1229">
    <clipPath
       id="clip7">
      <rect
         x="0"
         y="0"
         width="392"
         height="347"
         id="rect109" />
    </clipPath>
    <clipPath
       id="clip8">
      <path
         d="M 285,9 H 391.61328 V 34 H 285 Z m 0,0"
         id="path97"
         inkscape:connector-curvature="0" />
    </clipPath>
    <clipPath
       id="clip9">
      <path
         d="m 230,281 h 72 v 65.30469 h -72 z m 0,0"
         id="path100"
         inkscape:connector-curvature="0" />
    </clipPath>
    <clipPath
       id="clip10">
      <path
         d="M 0.273438,0.203125 H 231 V 142 H 0.273438 Z m 0,0"
         id="path103"
         inkscape:connector-curvature="0" />
    </clipPath>
    <clipPath
       id="clip11">
      <path
         d="M 0.273438,0.203125 H 142 V 106 H 0.273438 Z m 0,0"
         id="path106"
         inkscape:connector-curvature="0" />
    </clipPath>
    <clipPath
       id="clipPath1800">
      <rect
         x="0"
         y="0"
         width="392"
         height="347"
         id="rect1798" />
    </clipPath>
    <clipPath
       id="clipPath1804">
      <path
         d="M 285,9 H 391.61328 V 34 H 285 Z m 0,0"
         id="path1802"
         inkscape:connector-curvature="0" />
    </clipPath>
    <clipPath
       id="clipPath1808">
      <path
         d="m 230,281 h 72 v 65.30469 h -72 z m 0,0"
         id="path1806"
         inkscape:connector-curvature="0" />
    </clipPath>
    <clipPath
       id="clipPath1812">
      <path
         d="M 0.273438,0.203125 H 231 V 142 H 0.273438 Z m 0,0"
         id="path1810"
         inkscape:connector-curvature="0" />
    </clipPath>
    <clipPath
       id="clipPath1816">
      <path
         d="M 0.273438,0.203125 H 142 V 106 H 0.273438 Z m 0,0"
         id="path1814"
         inkscape:connector-curvature="0" />
    </clipPath>
    <clipPath
       id="clip2">
      <path
         inkscape:connector-curvature="0"
         d="M 89,416 H 284 V 595.28125 H 89 Z m 0,0"
         id="path82" />
    </clipPath>
    <clipPath
       id="clip3">
      <path
         inkscape:connector-curvature="0"
         d="M 89,416 H 284 V 595.28125 H 89 Z m 0,0"
         id="path85" />
    </clipPath>
    <clipPath
       id="clip4">
      <path
         inkscape:connector-curvature="0"
         d="M 497,421 H 639 V 595.28125 H 497 Z m 0,0"
         id="path88" />
    </clipPath>
    <clipPath
       id="clip5">
      <path
         inkscape:connector-curvature="0"
         d="M 253,416 H 481 V 595.28125 H 253 Z m 0,0"
         id="path91" />
    </clipPath>
    <clipPath
       id="clip6">
      <path
         inkscape:connector-curvature="0"
         d="M 361,416 H 617 V 595.28125 H 361 Z m 0,0"
         id="path94" />
    </clipPath>
  </defs>
  <sodipodi:namedview
     id="base"
     pagecolor="#ffffff"
     bordercolor="#666666"
     borderopacity="1.0"
     inkscape:pageopacity="0.0"
     inkscape:pageshadow="2"
     inkscape:zoom="0.98994949"
     inkscape:cx="576.1015"
     inkscape:cy="70.028842"
     inkscape:document-units="mm"
     inkscape:current-layer="layer1"
     showgrid="false"
     inkscape:window-width="1600"
     inkscape:window-height="1131"
     inkscape:window-x="0"
     inkscape:window-y="0"
     inkscape:window-maximized="1"
     fit-margin-top="1"
     fit-margin-left="1"
     fit-margin-right="1"
     fit-margin-bottom="1" />
  <metadata
     id="metadata1232">
    <rdf:RDF>
      <cc:Work
         rdf:about="">
        <dc:format>image/svg+xml</dc:format>
        <dc:type
           rdf:resource="http://purl.org/dc/dcmitype/StillImage" />
        <dc:title></dc:title>
        <dc:creator>
          <cc:Agent>
            <dc:title>Anna Guinet</dc:title>
          </cc:Agent>
        </dc:creator>
        <cc:license
           rdf:resource="http://creativecommons.org/licenses/by-nc-sa/4.0/" />
      </cc:Work>
      <cc:License
         rdf:about="http://creativecommons.org/licenses/by-nc-sa/4.0/">
        <cc:permits
           rdf:resource="http://creativecommons.org/ns#Reproduction" />
        <cc:permits
           rdf:resource="http://creativecommons.org/ns#Distribution" />
        <cc:requires
           rdf:resource="http://creativecommons.org/ns#Notice" />
        <cc:requires
           rdf:resource="http://creativecommons.org/ns#Attribution" />
        <cc:prohibits
           rdf:resource="http://creativecommons.org/ns#CommercialUse" />
        <cc:permits
           rdf:resource="http://creativecommons.org/ns#DerivativeWorks" />
        <cc:requires
           rdf:resource="http://creativecommons.org/ns#ShareAlike" />
      </cc:License>
    </rdf:RDF>
  </metadata>
  <g
     inkscape:label="Layer 1"
     inkscape:groupmode="layer"
     id="layer1"
     transform="translate(-11.352312,-222.01203)">
    <g
       transform="matrix(0.19772461,0,0,0.18443398,192.40936,222.97457)"
       clip-path="url(#clip7)"
       id="Hummingbird">
      <g
         style="clip-rule:nonzero"
         id="g1892"
         clip-path="url(#clip8)">
        <path
           inkscape:connector-curvature="0"
           id="path1890"
           d="M 391.61328,9.375 372.44531,33.546875 285.61328,17.375 Z m 0,0"
           style="fill:#73cfca;fill-opacity:1;fill-rule:nonzero;stroke:#73cfca;stroke-width:0.208" />
      </g>
      <path
         inkscape:connector-curvature="0"
         id="path1894"
         d="m 372.44531,33.542969 -7.17187,3.832031 -79.65625,-20 z m 0,0"
         style="fill:#429eab;fill-opacity:1;fill-rule:nonzero;stroke:#429eab;stroke-width:0.208" />
      <path
         inkscape:connector-curvature="0"
         id="path1896"
         d="m 331.61328,76.875 -15,32.5 -80.83984,-5.67187 L 229.79687,92.054688 247.27344,77.875 257.67578,61.464844 Z m 0,0"
         style="fill:#73cfca;fill-opacity:1;fill-rule:nonzero;stroke:#73cfca;stroke-width:0.208" />
      <path
         inkscape:connector-curvature="0"
         id="path1898"
         d="m 316.61328,109.375 -10,17.5 -70.83984,-23.17187 z m 0,0"
         style="fill:#429eab;fill-opacity:1;fill-rule:nonzero;stroke:#429eab;stroke-width:0.208" />
      <path
         inkscape:connector-curvature="0"
         id="path1900"
         d="m 306.61328,126.875 -19.16797,60.82812 -41.87109,8.78125 v -0.008 l -15.77735,-43.4414 0.92579,-11.48829 v -0.0117 l 5.05078,-37.83203 z m 0,0"
         style="fill:#45bfba;fill-opacity:1;fill-rule:nonzero;stroke:#45bfba;stroke-width:0.208" />
      <g
         style="clip-rule:nonzero"
         id="g1904"
         clip-path="url(#clip9)">
        <path
           inkscape:connector-curvature="0"
           id="path1902"
           d="m 299.44531,336.03516 2,6.5 -12.07812,3.76953 -25.49219,-28.89844 -4.60156,26.62891 -28.44922,-18.82032 17.44922,1.66016 3.5,-18.66797 -0.60938,-5.21094 -2.48828,-21.37109 0.98828,0.76172 17.95313,25.32031 z m 0,0"
           style="fill:#517394;fill-opacity:1;fill-rule:nonzero;stroke:#517394;stroke-width:0.208" />
      </g>
      <path
         inkscape:connector-curvature="0"
         id="path1906"
         d="m 279.27344,289.20703 20.17187,46.82813 -31.82812,-28.32813 -38.51172,-146.20312 v -0.008 l 0.6914,-8.46093 15.77735,43.4414 v 0.008 z m 0,0"
         style="fill:#73cfca;fill-opacity:1;fill-rule:nonzero;stroke:#73cfca;stroke-width:0.208" />
      <path
         inkscape:connector-curvature="0"
         id="path1908"
         d="m 257.67578,61.464844 82.4375,12.410156 -8.5,3 z m 0,0"
         style="fill:#429eab;fill-opacity:1;fill-rule:nonzero;stroke:#429eab;stroke-width:0.208" />
      <path
         inkscape:connector-curvature="0"
         id="path1910"
         d="M 365.27344,37.375 340.11719,73.875 257.67578,61.464844 285.61719,17.375 Z m 0,0"
         style="fill:#45bfba;fill-opacity:1;fill-rule:nonzero;stroke:#45bfba;stroke-width:0.208" />
      <path
         inkscape:connector-curvature="0"
         id="path1912"
         d="m 229.10547,161.50391 38.51172,146.19921 -17.95313,-25.3164 -0.98828,-0.76172 -18.48047,-14.05078 v -0.008 l -74.87109,-56.95313 -0.0977,-0.41797 70.89063,-11.91015 z m 0,0"
         style="fill:#4a9cae;fill-opacity:1;fill-rule:nonzero;stroke:#4a9cae;stroke-width:0.208" />
      <path
         inkscape:connector-curvature="0"
         id="path1914"
         d="m 285.61328,17.375 -27.9375,44.089844 -10.40234,16.410156 -17.47657,14.179688 -26.63281,21.589842 -7.20703,-7.30078 26.56641,-34 40.18359,-35.007812 z m 0,0"
         style="fill:#38617d;fill-opacity:1;fill-rule:nonzero;stroke:#38617d;stroke-width:0.208" />
      <path
         inkscape:connector-curvature="0"
         id="path1916"
         d="m 251.16406,302.99609 0.60938,5.21094 -3.5,18.66797 -17.44922,-1.66016 6.76172,-26.48047 1.02734,-4.02734 -8.41797,-27.13281 18.48047,14.05078 z m 0,0"
         style="fill:#38617d;fill-opacity:1;fill-rule:nonzero;stroke:#38617d;stroke-width:0.208" />
      <path
         inkscape:connector-curvature="0"
         id="path1918"
         d="m 262.70703,37.335938 -40.18359,35.007812 -26.56641,34 -14.41016,-14.589844 50.89844,-57.550781 z m 0,0"
         style="fill:#4a9cae;fill-opacity:1;fill-rule:nonzero;stroke:#4a9cae;stroke-width:0.208" />
      <path
         inkscape:connector-curvature="0"
         id="path1920"
         d="m 229.79297,92.054688 5.98047,11.648442 -5.04688,37.83203 -27.5625,-27.89063 z m 0,0"
         style="fill:#429eab;fill-opacity:1;fill-rule:nonzero;stroke:#429eab;stroke-width:0.208" />
      <g
         style="clip-rule:nonzero"
         id="g1924"
         clip-path="url(#clip10)">
        <path
           inkscape:connector-curvature="0"
           id="path1922"
           d="m 230.72266,141.53516 v 0.008 l -57.60938,-19.5 -1.78906,-0.73828 -26.87891,-11.10156 -2.87109,-5.16797 L 130.94531,85.875 104.83594,61.664062 113.77344,49.375 93.714844,52.425781 0.273438,0.203125 95.355469,42.066406 131.77344,41.375 l 49.76953,50.378906 14.41015,14.589844 7.21094,7.30078 z m 0,0"
           style="fill:#45bfba;fill-opacity:1;fill-rule:nonzero;stroke:#45bfba;stroke-width:0.208" />
      </g>
      <path
         inkscape:connector-curvature="0"
         id="path1926"
         d="m 230.72266,141.54297 -0.92969,11.49219 -0.6875,8.46093 v 0.008 l -2.98828,36.78125 -70.89453,11.91015 -13.94922,-59.32031 30.05078,-29.57031 1.78906,0.73828 z m 0,0"
         style="fill:#51b8ba;fill-opacity:1;fill-rule:nonzero;stroke:#51b8ba;stroke-width:0.208" />
      <path
         inkscape:connector-curvature="0"
         id="path1928"
         d="m 171.32422,121.30469 -30.05078,29.57031 -3.91016,-48.96094 4.21094,3.1211 2.87109,5.16797 z m 0,0"
         style="fill:#4a9cae;fill-opacity:1;fill-rule:nonzero;stroke:#4a9cae;stroke-width:0.208" />
      <path
         inkscape:connector-curvature="0"
         id="path1930"
         d="m 155.22656,210.19531 0.0977,0.41797 -23.21094,-61.07031 -4.25781,-39.4375 -31.500001,-38.621095 41.007811,30.421875 v 0.008 l 3.91016,48.96094 z m 0,0"
         style="fill:#ee2363;fill-opacity:1;fill-rule:nonzero;stroke:#ee2363;stroke-width:0.208" />
      <g
         style="clip-rule:nonzero"
         id="g1934"
         clip-path="url(#clip11)">
        <path
           inkscape:connector-curvature="0"
           id="path1932"
           d="m 130.94531,85.875 10.62891,19.16016 -4.21094,-3.1211 v -0.008 L 96.355469,71.484375 96.34375,71.476562 0.273438,0.203125 l 93.441406,52.222656 2.898437,1.621094 8.222659,7.617187 z m 0,0"
           style="fill:#38617d;fill-opacity:1;fill-rule:nonzero;stroke:#38617d;stroke-width:0.208" />
      </g>
      <path
         inkscape:connector-curvature="0"
         id="path1936"
         d="M 93.714844,52.425781 113.77344,49.375 l -8.9375,12.289062 -8.222659,-7.621093 z m 0,0"
         style="fill:#517394;fill-opacity:1;fill-rule:nonzero;stroke:#517394;stroke-width:0.208" />
    </g>
    <g
       transform="matrix(0.3527778,0,0,0.3527778,-43.226569,84.156272)"
       id="XKCP">
      <g
         id="X">
        <path
           sodipodi:nodetypes="cc"
           inkscape:connector-curvature="0"
           style="fill:none;stroke:#235978;stroke-width:5;stroke-linecap:round;stroke-linejoin:miter;stroke-miterlimit:10;stroke-opacity:1"
           d="m 160.08203,559.54687 51.59171,-69.5085"
           id="path253" />
        <path
           id="path257"
           transform="matrix(1,0,0,-1,220.7964,477.3242)"
           d="M 2.4529071,1.3376715 53.152819,71.964825"
           style="fill:none;stroke:#235978;stroke-width:5;stroke-linecap:round;stroke-linejoin:miter;stroke-miterlimit:10;stroke-opacity:1"
           inkscape:connector-curvature="0"
           sodipodi:nodetypes="cc" />
        <path
           inkscape:connector-curvature="0"
           id="path259"
           transform="matrix(1,0,0,-1,160.0815,405.3604)"
           style="fill:none;stroke:#235978;stroke-width:5;stroke-linecap:round;stroke-linejoin:miter;stroke-miterlimit:10;stroke-opacity:1"
           d="M 5.3125e-4,0.001025 C 37.943386,-51.404317 75.90613,-102.79497 113.86772,-154.18647 m -12.75781,-0.10547 h 12.75781 M 5.3125e-4,0.001025 H 10.914594" />
      </g>
      <g
         id="P">
        <path
           inkscape:connector-curvature="0"
           id="path283"
           transform="matrix(1,0,0,-1,580.6797,559.5488)"
           style="fill:none;stroke:#235978;stroke-width:5;stroke-linecap:round;stroke-linejoin:miter;stroke-miterlimit:10;stroke-opacity:1"
           d="M -1.25e-5,0.001925 H -12.847669 m 0,0 0.03906,67.308594" />
        <path
           inkscape:connector-curvature="0"
           id="path285"
           transform="matrix(1,0,0,-1,681.6992,439.5938)"
           d="M 1.875e-5,5e-5 C -0.0234188,0.300831 -0.0624813,0.609425 -0.101544,0.921925 c -0.269531,2.183594 -0.824219,4.480469 -1.773437,6.792969 -0.011719,0.023437 -0.023438,0.0625 -0.039063,0.089844 -1.988281,4.820312 -5.367187,8.859375 -9.734375,12.222656 -0.02344,0.01172 -0.03906,0.03906 -0.0625,0.05078 -13.6875,10.546875 -37.035156,14.558594 -57.96875,15.910156 h -44.183591 v -78.171875 h 7.49609 c 6.371095,-0.06641 17.10547,-0.08984 33.593751,-0.06641 h 0.05078 c 4.878907,0.261719 9.925782,0.648438 14.976563,1.246094 0.02344,0 0.0625,0 0.08984,0.01563 0.5,0.05078 0.972656,0.101562 1.472656,0.167969 0.03906,0 0.06641,0.01172 0.105469,0.01172 23.742187,2.960938 47.292968,10.207032 54.164062,27.015625 0.269531,0.648438 0.5,1.300782 0.695313,1.9375 0.011718,0.02344 0.023437,0.05078 0.023437,0.07422 0.050781,0.171875 0.101563,0.351563 0.15625,0.546875 0.472656,1.585938 0.769531,3.117188 0.9375,4.609375 v 0.300781 c 0.0390627,0.308594 0.0781252,0.648438 0.10156275,0.984375 0.01171875,0.144532 0.02343745,0.285157 0.03906245,0.445313 0,0.089844 0,0.179687 0.0117188,0.285156 C 0.140644,-3.167919 0.128925,-1.62495 1.875e-5,5e-5 Z m 0,0"
           style="fill:none;stroke:#235978;stroke-width:5;stroke-linecap:butt;stroke-linejoin:miter;stroke-miterlimit:10;stroke-opacity:1" />
      </g>
      <g
         id="K">
        <path
           inkscape:connector-curvature="0"
           transform="matrix(1,0,0,-1,296.2271,504.6758)"
           id="path291"
           d="M -5.375e-4,3.3482328 V -54.644512"
           style="fill:none;stroke:#ee2363;stroke-width:5;stroke-linecap:round;stroke-linejoin:miter;stroke-miterlimit:10;stroke-opacity:1"
           sodipodi:nodetypes="cc" />
        <path
           inkscape:connector-curvature="0"
           id="path295"
           transform="matrix(1,0,0,-1,409.7549,405.5918)"
           style="fill:none;stroke:#ee2363;stroke-width:5;stroke-linecap:round;stroke-linejoin:miter;stroke-miterlimit:10;stroke-opacity:1"
           d="M -9.9375e-4,-0.00195 -113.52834,-86.2207 m 0,86.21875 V -86.2207 m 0,86.21875 h 14.39844" />
        <path
           inkscape:connector-curvature="0"
           id="path301"
           transform="matrix(1,0,0,-1,409.7549,559.791)"
           style="fill:none;stroke:#ee2363;stroke-width:5;stroke-linecap:round;stroke-linejoin:miter;stroke-miterlimit:10;stroke-opacity:1"
           d="M -9.9375e-4,0.4706875 V 12.755844 m 0,-12.2851565 L -87.278338,75.213433"
           sodipodi:nodetypes="cccc" />
      </g>
      <g
         id="C">
        <g
           id="g309">
          <path
             id="path307"
             transform="matrix(1,0,0,-1,545.6211,559.8115)"
             d="M -6.2500001e-6,-0.001 H -40.972662 c -1.605469,0.0625 -3.238282,0.132813 -4.855469,0.25 -12.132813,0.8125 -24.511719,3.398438 -37.472656,11.179688 -4.988282,2.992187 -9.648438,6.632812 -13.71875,11.050781 -6.960943,7.550781 -12.230473,17.449219 -14.621093,30.480469 -0.082,0.339843 -0.1211,0.6875 -0.17969,1.039062 -0.0391,0.222656 -0.0781,0.421875 -0.10937,0.640625 -0.043,0.160156 -0.0586,0.351563 -0.0703,0.519531 -0.0195,0.03125 -0.0312,0.08984 -0.0312,0.121094 -0.0781,0.46875 -0.14062,0.941406 -0.19922,1.398438 -0.10937,0.710937 -0.16796,1.390625 -0.25781,2.089843 -0.1914,1.582032 -0.40234,3.460938 -0.58203,5.613282 -0.0898,1.128906 -0.17969,2.339843 -0.25781,3.597656 -0.0234,0.449219 -0.0547,0.902344 -0.0703,1.359375 -0.0312,0.460937 -0.0508,0.910156 -0.0742,1.390625 -0.0156,0.460937 -0.0391,0.941406 -0.0469,1.429687"
             style="fill:none;stroke:#235978;stroke-width:5;stroke-linecap:round;stroke-linejoin:miter;stroke-miterlimit:10;stroke-opacity:1"
             inkscape:connector-curvature="0"
             sodipodi:nodetypes="ccccccccccccccccc" />
        </g>
        <path
           inkscape:connector-curvature="0"
           id="path311"
           transform="matrix(1,0,0,-1,545.5576,414.7764)"
           style="fill:none;stroke:#235978;stroke-width:5;stroke-linecap:round;stroke-linejoin:miter;stroke-miterlimit:10;stroke-opacity:1"
           d="M 9.9375e-4,-9.4375e-4 V 11.170931 m 0,0 H -40.971662 c -1.609375,-0.05859 -3.238282,-0.128906 -4.859375,-0.25 -12.128907,-0.808593 -24.507813,-3.398437 -37.46875,-11.179687 -4.988282,-2.992188 -9.648438,-6.628906 -13.722657,-11.050781 -6.957026,-7.546875 -12.226566,-17.449219 -14.617186,-30.480469 -0.082,-0.339844 -0.12109,-0.6875 -0.17969,-1.039063 -0.0391,-0.21875 -0.082,-0.421875 -0.11328,-0.640625 -0.0391,-0.160156 -0.0586,-0.347656 -0.0664,-0.519531 -0.0234,-0.02734 -0.0312,-0.08984 -0.0312,-0.117187 -0.0781,-0.472657 -0.14062,-0.941407 -0.19921,-1.402344 -0.10938,-0.710938 -0.17188,-1.390625 -0.26172,-2.089844 -0.19141,-1.582031 -0.39844,-3.460937 -0.57813,-5.609375 -0.0898,-1.132812 -0.17969,-2.339844 -0.26172,-3.601562 -0.0195,-0.449219 -0.0508,-0.898438 -0.0703,-1.359375 -0.0312,-0.460938 -0.0469,-0.910157 -0.0703,-1.390625 -0.0195,-0.457032 -0.0391,-0.941407 -0.0508,-1.429688 v 0.117188 -1.347657" />
      </g>
    </g>
  </g>
</svg>
